<?xml version="1.0" standalone="no"?>
<!DOCTYPE svg PUBLIC "-//W3C//DTD SVG 20010904//EN"
 "http://www.w3.org/TR/2001/REC-SVG-20010904/DTD/svg10.dtd">
<svg version="1.0" xmlns="http://www.w3.org/2000/svg"
 width="200.000000pt" height="200.000000pt" viewBox="0 0 200.000000 200.000000"
 preserveAspectRatio="xMidYMid meet">
<metadata>
Created by potrace 1.14, written by Peter Selinger 2001-2017
</metadata>
<g transform="translate(0.000000,200.000000) scale(0.100000,-0.100000)"
fill="#000000" stroke="none">
<path d="M977 1971 c-15 -16 -27 -36 -27 -45 0 -21 -27 -20 -39 1 -5 10 -13
15 -17 11 -8 -9 -7 -95 1 -108 4 -6 1 -10 -5 -10 -6 0 -14 -10 -18 -21 -7 -18
-10 -19 -23 -7 -27 27 -48 29 -71 6 -22 -22 -68 -33 -68 -17 0 19 -21 8 -60
-31 -41 -41 -70 -51 -70 -25 0 8 -9 19 -20 25 -11 6 -20 17 -20 25 0 26 -24
21 -58 -12 -18 -18 -32 -40 -30 -49 2 -10 -5 -18 -15 -20 -28 -4 -33 -13 -19
-34 17 -28 15 -40 -8 -40 -20 0 -44 -32 -33 -44 4 -4 -3 -9 -15 -13 -22 -5
-24 -11 -24 -88 0 -88 -2 -84 49 -87 l47 -3 2 -165 c3 -176 7 -233 23 -319 14
-68 14 -72 -1 -68 -16 3 -25 38 -27 103 -1 32 -7 56 -16 64 -12 10 -13 6 -8
-24 5 -32 4 -34 -16 -29 -13 3 -21 1 -21 -7 0 -7 -9 -2 -20 11 -13 15 -20 18
-18 9 1 -8 -1 -32 -6 -53 -4 -25 -3 -43 4 -52 8 -10 7 -22 -4 -48 -8 -20 -12
-38 -9 -41 3 -2 -4 -2 -15 1 -11 2 -22 1 -25 -4 -11 -17 11 -154 27 -172 9
-10 16 -23 16 -31 0 -7 8 -19 17 -25 17 -13 17 -14 0 -32 -22 -25 -22 -39 0
-52 32 -17 6 -23 -32 -6 -21 8 -40 13 -43 10 -7 -6 67 -118 84 -128 24 -14 16
-27 -36 -59 -27 -17 -50 -35 -50 -39 0 -17 65 -42 113 -44 28 -1 75 4 106 11
77 18 78 18 96 -16 32 -61 118 -156 153 -168 30 -10 41 -9 152 11 89 16 175
13 266 -8 108 -25 119 -22 184 43 46 46 81 92 116 150 1 2 30 -4 65 -13 40
-11 84 -15 119 -12 55 5 110 24 110 38 0 4 -23 23 -51 44 l-50 36 30 35 c17
19 37 47 46 63 12 25 12 31 1 40 -10 8 -16 9 -21 1 -3 -5 -16 -10 -27 -10
l-22 0 22 20 c27 25 27 25 1 49 -21 19 -21 20 -1 32 12 7 17 19 14 31 -2 10 1
18 6 18 20 0 34 41 39 117 4 72 4 75 -15 71 -25 -7 -35 20 -39 107 -4 104 -4
101 -25 75 -16 -19 -18 -20 -18 -4 0 14 -3 15 -12 6 -22 -22 -30 -13 -24 26 6
34 5 35 -8 18 -9 -11 -15 -38 -15 -65 1 -25 -1 -55 -4 -66 -3 -11 -6 -23 -6
-26 -1 -3 -8 -6 -16 -6 -9 0 -14 6 -11 13 22 58 37 215 38 402 l0 142 49 0
c32 0 49 4 50 13 0 6 1 44 2 82 2 65 0 70 -21 73 -12 2 -20 8 -17 13 10 15
-15 49 -35 49 -23 0 -25 12 -7 40 10 17 9 22 -2 29 -8 5 -20 7 -27 4 -8 -3
-11 2 -8 14 6 22 -66 106 -74 84 -2 -7 -15 -23 -28 -34 -13 -11 -24 -27 -24
-34 0 -7 -5 -13 -11 -13 -17 0 -79 51 -79 66 0 16 -26 19 -35 5 -8 -14 -41 -5
-72 18 -26 21 -26 21 -57 2 l-32 -20 -13 30 c-7 16 -11 45 -8 64 5 39 -10 59
-33 45 -22 -14 -33 -12 -26 5 3 8 -3 20 -13 27 -9 7 -20 21 -24 31 -9 24 -18
22 -50 -12z m-62 -590 c-12 -20 -121 -52 -183 -55 -36 -2 -84 3 -108 10 -45
13 -104 41 -104 49 0 3 90 5 201 5 122 0 198 -4 194 -9z m561 -10 c-16 -11
-58 -27 -93 -37 -84 -23 -164 -15 -245 24 l-63 30 215 1 215 1 -29 -19z m-954
-701 c17 -52 37 -107 44 -122 8 -15 14 -32 14 -37 0 -12 -44 -36 -103 -57 -40
-14 -40 -14 -23 5 16 18 16 20 -6 40 -18 18 -20 24 -9 30 38 24 59 142 38 205
-9 25 -13 55 -9 68 5 21 6 21 14 -7 5 -17 23 -73 40 -125z m1018 114 c0 -14
-4 -33 -9 -42 -5 -10 -12 -37 -16 -61 -5 -33 -2 -50 15 -77 11 -20 17 -40 14
-45 -3 -6 2 -16 12 -24 18 -13 18 -14 0 -34 -18 -20 -16 -51 4 -51 5 0 10 -4
10 -9 0 -11 -94 26 -128 49 l-22 15 35 85 c19 47 42 115 52 153 18 68 33 88
33 41z"/>
<path d="M1452 178 c-27 -27 -6 -68 35 -68 32 0 46 31 27 58 -17 24 -44 28
-62 10z"/>
</g>
</svg>
